<?xml version="1.0" encoding="UTF-8"?>
<svg width="100%" height="100%" viewBox="0 0 218 32" version="1.1" xmlns="http://www.w3.org/2000/svg" xmlns:xlink="http://www.w3.org/1999/xlink">
    <title>logo-patient-white</title>
    <defs>
        <polygon id="path-1" points="0.0182142857 0.174854716 31.1346865 0.174854716 31.1346865 32 0.0182142857 32"></polygon>
    </defs>
    <g id="Logos" stroke="none" stroke-width="1" fill="none" fill-rule="evenodd">
        <g transform="translate(-458.000000, -408.000000)" id="Group">
            <g transform="translate(458.000000, 408.000000)">
                <g>
                    <g id="Group-3">
                        <mask id="mask-2" fill="white">
                            <use xlink:href="#path-1"></use>
                        </mask>
                        <g id="Clip-2"></g>
                        <path d="M15.2517321,0.773846154 C11.0879464,0.773846154 6.9785,2.43384615 4.08333929,5.68276923 C1.48841071,8.66984615 0.273821429,12.624 0.665732143,16.8141538 C1.05794643,21.0110769 3.00808929,24.8873846 6.15673214,27.7298462 C9.24283929,30.452 13.1115536,31.7286154 17.0494821,31.3246154 C21.0347679,30.9144615 24.6166071,28.8476923 27.1347321,25.5052308 C32.3306607,18.7809231 31.4897679,9.50246154 25.2234464,4.37938462 L25.2207143,4.37723077 C22.3288929,1.96092308 18.7710357,0.773846154 15.2517321,0.773846154 Z M15.6175357,32 C12.0396429,32 8.58773214,30.672 5.76451786,28.1812308 C2.501125,25.2356923 0.481160714,21.2193846 0.0746785714,16.8710769 C-0.332714286,12.5138462 0.933785714,8.39815385 3.64042857,5.28246154 C9.19426786,-0.950461538 19.0424286,-1.564 25.5968393,3.91169231 C32.1175536,9.244 32.9997321,18.8904615 27.6043571,25.8732308 C24.987875,29.3464615 21.2597143,31.4956923 17.1095893,31.9230769 C16.6108214,31.9744615 16.1129643,32 15.6175357,32 L15.6175357,32 Z" id="Fill-1" fill="#FFFFFF" mask="url(#mask-2)"></path>
                    </g>
                    <polygon id="Fill-4" fill="#FFFFFF" points="37.9573571 22.7726154 41.2675 22.7726154 41.2675 4.89569231 37.9573571 4.89569231"></polygon>
                    <path d="M49.1670357,19.9809231 C50.4475,19.9809231 51.2206964,19.4178462 51.7762321,18.6341538 L51.7762321,14.6421538 C51.2206964,13.8833846 50.4475,13.32 49.1670357,13.32 C47.379,13.32 46.1468036,14.8384615 46.1468036,16.6504615 C46.1468036,18.4627692 47.379,19.9809231 49.1670357,19.9809231 Z M48.68375,23.0421538 C45.1076786,23.0421538 42.7158393,20.0787692 42.7158393,16.6504615 C42.7158393,13.2218462 45.1076786,10.2587692 48.68375,10.2587692 C49.9885,10.2587692 51.0755893,10.7243077 51.7762321,11.4098462 L51.7762321,10.5283077 L55.086375,10.5283077 L55.086375,22.7726154 L51.7762321,22.7726154 L51.7762321,21.8667692 C51.0755893,22.5769231 49.9885,23.0421538 48.68375,23.0421538 L48.68375,23.0421538 Z" id="Fill-5" fill="#FFFFFF"></path>
                    <path d="M63.0153571,19.9809231 C64.827375,19.9809231 66.0595714,18.4627692 66.0595714,16.6504615 C66.0595714,14.8384615 64.827375,13.32 63.0153571,13.32 C61.7345893,13.32 60.9616964,13.8833846 60.4061607,14.6421538 L60.4061607,18.6341538 C60.9616964,19.4178462 61.7345893,19.9809231 63.0153571,19.9809231 Z M63.4986429,23.0421538 C62.217875,23.0421538 61.1065,22.5769231 60.4061607,21.8667692 L60.4061607,22.7726154 L57.0957143,22.7726154 L57.0957143,4.89569231 L60.4061607,4.89569231 L60.4061607,11.4098462 C61.1065,10.7243077 62.217875,10.2587692 63.4986429,10.2587692 C67.0741071,10.2587692 69.46625,13.2218462 69.46625,16.6504615 C69.46625,20.0787692 67.0741071,23.0421538 63.4986429,23.0421538 L63.4986429,23.0421538 Z" id="Fill-6" fill="#FFFFFF"></path>
                    <path d="M76.9523214,23.0421538 C73.3765536,23.0421538 70.55,20.3483077 70.55,16.6504615 C70.55,12.9526154 73.3765536,10.2587692 76.9523214,10.2587692 C79.4652857,10.2587692 81.6397679,11.6793846 82.6785893,13.7852308 L79.8034643,15.3526154 C79.3201786,14.2261538 78.2810536,13.3935385 76.9523214,13.3935385 C75.2128571,13.3935385 73.884125,14.7646154 73.884125,16.6504615 C73.884125,18.536 75.2128571,19.9076923 76.9523214,19.9076923 C78.2810536,19.9076923 79.3201786,19.0750769 79.8034643,17.9483077 L82.6785893,19.5156923 C81.6397679,21.6218462 79.4652857,23.0421538 76.9523214,23.0421538" id="Fill-7" fill="#FFFFFF"></path>
                    <path d="M89.7074821,19.9076923 C91.4469464,19.9076923 92.703125,18.536 92.703125,16.6504615 C92.703125,14.7646154 91.4469464,13.3935385 89.7074821,13.3935385 C87.9680179,13.3935385 86.68725,14.7646154 86.68725,16.6504615 C86.68725,18.536 87.9680179,19.9076923 89.7074821,19.9076923 Z M89.7074821,23.0421538 C86.2039643,23.0421538 83.3528214,20.2258462 83.3528214,16.6504615 C83.3528214,13.0750769 86.2039643,10.2587692 89.7074821,10.2587692 C93.2106964,10.2587692 96.0618393,13.0750769 96.0618393,16.6504615 C96.0618393,20.2258462 93.2106964,23.0421538 89.7074821,23.0421538 L89.7074821,23.0421538 Z" id="Fill-8" fill="#FFFFFF"></path>
                    <path d="M112.382446,19.9809231 C114.194464,19.9809231 115.426964,18.4627692 115.426964,16.6504615 C115.426964,14.8384615 114.194464,13.32 112.382446,13.32 C111.101982,13.32 110.328786,13.8833846 109.77325,14.6421538 L109.77325,18.6341538 C110.328786,19.4178462 111.101982,19.9809231 112.382446,19.9809231 Z M106.463107,10.5283077 L109.77325,10.5283077 L109.77325,11.4098462 C110.473893,10.7243077 111.584964,10.2587692 112.865732,10.2587692 C116.4415,10.2587692 118.833339,13.2218462 118.833339,16.6504615 C118.833339,20.0787692 116.4415,23.0421538 112.865732,23.0421538 C111.584964,23.0421538 110.473893,22.5769231 109.77325,21.8667692 L109.77325,27.5236923 L106.463107,27.5236923 L106.463107,10.5283077 L106.463107,10.5283077 Z" id="Fill-9" fill="#FFFFFF"></path>
                    <path d="M103.613482,10.3812308 C102.357,10.3812308 101.221643,11.1156923 100.810607,11.9975385 L100.810607,10.5283077 L97.5004643,10.5283077 L97.5004643,22.7726154 L100.810607,22.7726154 L100.810607,15.1947692 C102.3825,12.884 105.014768,13.8166154 105.014768,13.8166154 L105.014768,10.6018462 C104.748839,10.5036923 104.217286,10.3812308 103.613482,10.3812308" id="Fill-10" fill="#FFFFFF"></path>
                    <path d="M17.7009464,3.25846154 C14.656125,3.25846154 11.6507679,4.472 9.53396429,6.84769231 C5.60483929,11.3707692 6.30032143,18.8206154 11.0551607,23.1123077 C13.2660714,25.0627692 16.0504286,25.9781538 18.8906429,25.6843077 C21.804625,25.3846154 24.5382857,23.8027692 26.390375,21.3446154 C30.1904821,16.4261538 29.5769643,9.64184615 24.9957679,5.89630769 L24.9930357,5.89415385 C22.87775,4.12646154 20.2749286,3.25846154 17.7009464,3.25846154 Z M17.8509107,26.3396923 C15.2332143,26.3396923 12.7150893,25.3744615 10.6629464,23.5636923 C5.66676786,19.0538462 4.94791071,11.2166154 9.09105357,6.44738462 C13.2093036,1.82523077 20.5108036,1.36984615 25.3697679,5.42923077 C30.20475,9.38369231 30.8598571,16.536 26.86,21.7126154 C24.9107679,24.2996923 22.0274464,25.9664615 18.95075,26.2830769 C18.583125,26.3212308 18.2158036,26.3396923 17.8509107,26.3396923 L17.8509107,26.3396923 Z" id="Fill-11" fill="#FFFFFF"></path>
                    <path d="M19.1031429,5.35076923 C16.8142143,5.35076923 14.5556429,6.26492308 12.964625,8.05446154 C9.98871429,11.488 10.5026607,16.9403077 14.1124286,20.2061538 C15.8060536,21.7036923 17.9292321,22.408 20.091875,22.1852308 C22.2815357,21.96 24.2498929,20.8215385 25.6344821,18.9796923 C28.4923036,15.2726154 28.0317857,10.1606154 24.5886786,7.33938462 L24.58625,7.33723077 C22.9955357,6.00492308 21.0384107,5.35076923 19.1031429,5.35076923 Z M19.3074464,22.827077 C17.2777679,22.8273846 15.3200357,22.0723077 13.7199107,20.6572308 C9.86516071,17.1701538 9.32844643,11.3381538 12.5211071,7.65476923 C15.66975,4.11292308 21.2496964,3.76369231 24.9632857,6.87261538 C28.6595714,9.90276923 29.1610714,15.3818462 26.1044107,19.3473846 C24.6214643,21.32 22.5064821,22.5415385 20.1516786,22.7836923 C19.8693571,22.8126154 19.5876429,22.827077 19.3074464,22.827077 L19.3074464,22.827077 Z" id="Fill-12" fill="#FFFFFF"></path>
                </g>
                <path d="M211.95337,7 L211.95337,2.30349014 L213.555744,2.30349014 L213.555744,2 L210,2 L210,2.30349014 L211.602374,2.30349014 L211.602374,7 L211.95337,7 Z M214.421365,7 L214.421365,3.71471927 C214.421365,3.50733434 214.416278,3.28351037 214.406104,3.04324734 C214.39593,2.80298432 214.385757,2.57663126 214.375583,2.36418816 L214.375583,2.36418816 L214.406104,2.36418816 L214.802883,3.47951442 L215.894023,6.45371775 L216.199237,6.45371775 L217.282747,3.47951442 L217.671895,2.36418816 L217.702416,2.36418816 C217.692242,2.57663126 217.682069,2.80298432 217.671895,3.04324734 C217.661721,3.28351037 217.656634,3.50733434 217.656634,3.71471927 L217.656634,3.71471927 L217.656634,7 L218,7 L218,2 L217.496397,2 L216.451039,4.93626707 C216.384909,5.11836115 216.321323,5.30171978 216.26028,5.48634294 C216.199237,5.67096611 216.135651,5.85685382 216.069521,6.04400607 L216.069521,6.04400607 L216.039,6.04400607 C215.97287,5.85685382 215.90674,5.67096611 215.84061,5.48634294 C215.774481,5.30171978 215.708351,5.11836115 215.642221,4.93626707 L215.642221,4.93626707 L214.589233,2 L214.09326,2 L214.09326,7 L214.421365,7 Z" id="TM" fill="#FFFFFF" fill-rule="nonzero"></path>
                <path d="M139.738298,22.3723864 L139.738298,15.9240909 L142.416565,15.9240909 C143.309321,15.9240909 144.123548,15.8207528 144.859245,15.6140767 C145.594941,15.4074006 146.22731,15.0973864 146.756351,14.6840341 C147.285391,14.2706818 147.694571,13.749858 147.98389,13.1215625 C148.273209,12.493267 148.417868,11.749233 148.417868,10.8894602 C148.417868,9.99661932 148.269076,9.24431818 147.97149,8.63255682 C147.673905,8.02079545 147.260592,7.52890625 146.731552,7.1568892 C146.202511,6.78487216 145.561876,6.51619318 144.809647,6.35085227 C144.057418,6.18551136 143.226659,6.10284091 142.31737,6.10284091 L142.31737,6.10284091 L137.68,6.10284091 L137.68,22.3723864 L139.738298,22.3723864 Z M142.168578,14.2376136 L139.738298,14.2376136 L139.738298,7.76451705 L142.069383,7.76451705 C143.491179,7.76451705 144.561659,7.9918608 145.280824,8.4465483 C145.999988,8.9012358 146.35957,9.71553977 146.35957,10.8894602 C146.35957,12.0468466 146.016521,12.8942187 145.330421,13.4315767 C144.644322,13.9689347 143.590374,14.2376136 142.168578,14.2376136 L142.168578,14.2376136 Z M154.295177,22.67 C155.055673,22.67 155.766571,22.5005256 156.427872,22.1615767 C157.089172,21.8226278 157.709142,21.4134091 158.28778,20.9339205 L158.28778,20.9339205 L158.362176,20.9339205 L158.535767,22.3723864 L160.222084,22.3723864 L160.222084,14.9816477 C160.222084,13.4770455 159.891434,12.2741903 159.230133,11.3730824 C158.568832,10.4719744 157.502485,10.0214205 156.031091,10.0214205 C155.055673,10.0214205 154.162917,10.1908949 153.352824,10.5298437 C152.542731,10.8687926 151.856631,11.220142 151.294526,11.583892 L151.294526,11.583892 L152.088087,12.9975568 C152.56753,12.666875 153.113103,12.3692614 153.724806,12.1047159 C154.336509,11.8401705 154.989543,11.7078977 155.683909,11.7078977 C156.179884,11.7078977 156.589064,11.7947017 156.911448,11.9683097 C157.233832,12.1419176 157.485953,12.3692614 157.66781,12.6503409 C157.849668,12.9314205 157.977795,13.2538352 158.052191,13.6175852 C158.126588,13.9813352 158.163786,14.3533523 158.163786,14.7336364 C155.584714,15.0147159 153.708273,15.5066051 152.534465,16.209304 C151.360656,16.9120028 150.773752,17.9247159 150.773752,19.2474432 C150.773752,20.3386932 151.108535,21.1819318 151.778102,21.7771591 C152.447669,22.3723864 153.286694,22.67 154.295177,22.67 Z M154.890348,21.033125 C154.295177,21.033125 153.790936,20.8843182 153.377623,20.5867045 C152.96431,20.2890909 152.757653,19.7930682 152.757653,19.0986364 C152.757653,18.7183523 152.852715,18.3670028 153.042839,18.0445881 C153.232963,17.7221733 153.538815,17.4369602 153.960394,17.1889489 C154.381973,16.9409375 154.935812,16.7259943 155.621912,16.5441193 C156.308011,16.3622443 157.155302,16.2051705 158.163786,16.0728977 L158.163786,16.0728977 L158.163786,19.4210511 C157.585148,19.950142 157.039575,20.3510937 156.527067,20.6239062 C156.014559,20.8967187 155.468986,21.033125 154.890348,21.033125 Z M167.810508,22.67 C168.190756,22.67 168.575137,22.6245312 168.963651,22.5335937 C169.352165,22.4426562 169.711747,22.3393182 170.042398,22.2235795 L170.042398,22.2235795 L169.645617,20.6859091 C169.447227,20.7685795 169.224038,20.842983 168.97605,20.9091193 C168.728063,20.9752557 168.496608,21.0083239 168.281685,21.0083239 C167.587319,21.0083239 167.103743,20.8057812 166.830957,20.400696 C166.55817,19.9956108 166.421777,19.4210511 166.421777,18.677017 L166.421777,18.677017 L166.421777,11.9807102 L169.670416,11.9807102 L169.670416,10.3190341 L166.421777,10.3190341 L166.421777,6.94607955 L164.710662,6.94607955 L164.462674,10.3190341 L162.577967,10.4430398 L162.577967,11.9807102 L164.363479,11.9807102 L164.363479,18.6522159 C164.363479,19.2474432 164.421343,19.7930682 164.53707,20.2890909 C164.652798,20.7851136 164.847055,21.206733 165.119841,21.5539489 C165.392628,21.9011648 165.748077,22.1739773 166.186189,22.3723864 C166.6243,22.5707955 167.16574,22.67 167.810508,22.67 Z M173.439829,7.83892045 C173.83661,7.83892045 174.171393,7.71491477 174.44418,7.46690341 C174.716966,7.21889205 174.853359,6.90474432 174.853359,6.52446023 C174.853359,6.12764205 174.716966,5.8093608 174.44418,5.56961648 C174.171393,5.32987216 173.83661,5.21 173.439829,5.21 C173.043049,5.21 172.708266,5.32987216 172.435479,5.56961648 C172.162693,5.8093608 172.026299,6.12764205 172.026299,6.52446023 C172.026299,6.90474432 172.162693,7.21889205 172.435479,7.46690341 C172.708266,7.71491477 173.043049,7.83892045 173.439829,7.83892045 Z M174.43178,22.3723864 L174.43178,10.3190341 L172.398281,10.3190341 L172.398281,22.3723864 L174.43178,22.3723864 Z M183.384137,22.67 C184.210763,22.67 184.94646,22.5459943 185.591228,22.297983 C186.235996,22.0499716 186.8229,21.760625 187.351941,21.4299432 L187.351941,21.4299432 L186.632776,20.0906818 C186.186398,20.3717614 185.719355,20.5991051 185.231646,20.7727131 C184.743936,20.946321 184.210763,21.033125 183.632125,21.033125 C182.474849,21.033125 181.536629,20.6569744 180.817464,19.9046733 C180.0983,19.1523722 179.697386,18.131392 179.614724,16.841733 L179.614724,16.841733 L187.748721,16.841733 C187.781786,16.6929261 187.802452,16.5151847 187.810718,16.3085085 C187.818984,16.1018324 187.823117,15.8910227 187.823117,15.6760795 C187.823117,14.8163068 187.715656,14.0392045 187.500733,13.3447727 C187.285811,12.6503409 186.975826,12.0551136 186.570779,11.5590909 C186.165733,11.0630682 185.661491,10.6827841 185.058054,10.4182386 C184.454617,10.1536932 183.772651,10.0214205 183.012156,10.0214205 C182.31779,10.0214205 181.648223,10.1660937 181.003455,10.4554403 C180.358687,10.7447869 179.784182,11.1622727 179.27994,11.7078977 C178.775699,12.2535227 178.370652,12.9190199 178.0648,13.7043892 C177.758949,14.4897585 177.606023,15.3784659 177.606023,16.3705114 C177.606023,17.3625568 177.754816,18.2471307 178.052401,19.024233 C178.349986,19.8013352 178.759166,20.4585653 179.27994,20.9959233 C179.800715,21.5332812 180.412418,21.9466335 181.115049,22.2359801 C181.817681,22.5253267 182.574044,22.67 183.384137,22.67 Z M186.037606,15.3784659 L179.589925,15.3784659 C179.656055,14.7832386 179.792448,14.2541477 179.999105,13.7911932 C180.205761,13.3282386 180.466148,12.935554 180.780266,12.6131392 C181.094384,12.2907244 181.4457,12.0468466 181.834214,11.8815057 C182.222728,11.7161648 182.631908,11.6334943 183.061753,11.6334943 C184.004106,11.6334943 184.73567,11.9517756 185.256444,12.5883381 C185.777219,13.2249006 186.037606,14.1549432 186.037606,15.3784659 L186.037606,15.3784659 Z M192.832469,22.3723864 L192.832469,13.6423864 C193.444172,13.030625 193.989745,12.5676705 194.469188,12.2535227 C194.948631,11.939375 195.50247,11.7823011 196.130706,11.7823011 C196.924267,11.7823011 197.502905,12.034446 197.86662,12.5387358 C198.230335,13.0430256 198.412193,13.8655966 198.412193,15.0064489 L198.412193,15.0064489 L198.412193,22.3723864 L200.445692,22.3723864 L200.445692,14.7336364 C200.445692,13.1794318 200.15224,12.0055114 199.565336,11.211875 C198.978432,10.4182386 198.048478,10.0214205 196.775474,10.0214205 C195.932316,10.0214205 195.192486,10.215696 194.555984,10.6042472 C193.919482,10.9927983 193.311912,11.4764205 192.733274,12.0551136 L192.733274,12.0551136 L192.658878,12.0551136 L192.485286,10.3190341 L190.79897,10.3190341 L190.79897,22.3723864 L192.832469,22.3723864 Z M208.158111,22.67 C208.538358,22.67 208.922739,22.6245312 209.311253,22.5335937 C209.699768,22.4426562 210.05935,22.3393182 210.39,22.2235795 L210.39,22.2235795 L209.99322,20.6859091 C209.794829,20.7685795 209.571641,20.842983 209.323653,20.9091193 C209.075665,20.9752557 208.84421,21.0083239 208.629287,21.0083239 C207.934922,21.0083239 207.451345,20.8057812 207.178559,20.400696 C206.905773,19.9956108 206.769379,19.4210511 206.769379,18.677017 L206.769379,18.677017 L206.769379,11.9807102 L210.018018,11.9807102 L210.018018,10.3190341 L206.769379,10.3190341 L206.769379,6.94607955 L205.058264,6.94607955 L204.810276,10.3190341 L202.92557,10.4430398 L202.92557,11.9807102 L204.711081,11.9807102 L204.711081,18.6522159 C204.711081,19.2474432 204.768945,19.7930682 204.884673,20.2890909 C205.0004,20.7851136 205.194657,21.206733 205.467444,21.5539489 C205.74023,21.9011648 206.095679,22.1739773 206.533791,22.3723864 C206.971903,22.5707955 207.513342,22.67 208.158111,22.67 Z" id="Patient" fill="#FFFFFF" fill-rule="nonzero"></path>
                <rect id="Rectangle" fill="#FFFFFF" x="127.84" y="4.69" width="1" height="22.38"></rect>
            </g>
        </g>
    </g>
</svg>